<svg width="214" height="125" viewBox="0 0 214 125" fill="none" xmlns="http://www.w3.org/2000/svg">
<g filter="url(#filter0_i_2_3)">
<path d="M26.929 14C27.0483 12.6875 26.7301 11.66 25.9744 10.9176C25.2188 10.1619 23.946 9.78409 22.1562 9.78409C21.0161 9.78409 20.0616 9.91667 19.2926 10.1818C18.5369 10.447 17.947 10.8116 17.5227 11.2756C17.1117 11.7396 16.8532 12.2765 16.7472 12.8864C16.6278 13.3636 16.6345 13.8011 16.767 14.1989C16.9129 14.5833 17.1847 14.9347 17.5824 15.2528C17.9934 15.571 18.5303 15.8561 19.1932 16.108C19.8693 16.3598 20.6714 16.5852 21.5994 16.7841L24.7812 17.5C26.9555 17.9773 28.7784 18.607 30.25 19.3892C31.7348 20.1581 32.9015 21.0729 33.75 22.1335C34.5985 23.1941 35.1553 24.3807 35.4205 25.6932C35.6989 27.0057 35.7055 28.4375 35.4403 29.9886C34.9896 32.6667 33.9489 34.9337 32.3182 36.7898C30.6875 38.6458 28.5597 40.0578 25.9347 41.0256C23.3097 41.9934 20.2737 42.4773 16.8267 42.4773C13.3002 42.4773 10.304 41.9536 7.83807 40.9062C5.38542 39.8456 3.6089 38.2282 2.50852 36.054C1.4214 33.8665 1.15625 31.0758 1.71307 27.6818H12.2131C12.054 28.928 12.1866 29.9754 12.6108 30.8239C13.035 31.6723 13.7178 32.3153 14.6591 32.7528C15.6004 33.1903 16.7737 33.4091 18.179 33.4091C19.3722 33.4091 20.393 33.2633 21.2415 32.9716C22.09 32.6799 22.7595 32.2756 23.25 31.7585C23.7405 31.2415 24.0388 30.6515 24.1449 29.9886C24.2509 29.3788 24.1449 28.8352 23.8267 28.358C23.5085 27.8807 22.9318 27.4498 22.0966 27.0653C21.2614 26.6809 20.1146 26.3295 18.6562 26.0114L14.7585 25.1364C11.2983 24.3409 8.68655 23.0284 6.9233 21.1989C5.16004 19.3693 4.53693 16.8636 5.05398 13.6818C5.47822 11.0833 6.54545 8.81629 8.25568 6.88068C9.97917 4.93182 12.1667 3.42045 14.8182 2.34659C17.483 1.25947 20.4328 0.715908 23.6676 0.715908C26.9555 0.715908 29.7064 1.2661 31.9205 2.36648C34.1477 3.46686 35.7453 5.01136 36.7131 7C37.6941 8.98863 37.9593 11.322 37.5085 14H26.929ZM44.419 1.27273H58.1804L63.8281 24.3409H64.3054L77.5895 1.27273H91.3509L84.5895 42H73.7713L77.669 18.4545H77.3509L64.4645 41.6818H57.9418L52.7713 18.2955H52.4531L48.4759 42H37.6577L44.419 1.27273ZM100.409 42H88.4773L108.682 1.27273H123.795L130.477 42H118.545L114.568 12.4886H114.25L100.409 42ZM100.886 25.9318H123.318L121.886 34.2045H99.4545L100.886 25.9318ZM134.4 42L141.161 1.27273H158.741C161.763 1.27273 164.316 1.82292 166.397 2.92329C168.478 4.02367 169.977 5.60795 170.891 7.67614C171.806 9.74432 172.025 12.2235 171.548 15.1136C171.07 18.0303 170.016 20.4896 168.386 22.4915C166.768 24.4801 164.707 25.9915 162.201 27.0256C159.709 28.0464 156.911 28.5568 153.809 28.5568H143.309L144.741 19.9659H153.013C154.313 19.9659 155.453 19.8068 156.434 19.4886C157.415 19.1572 158.21 18.6402 158.82 17.9375C159.43 17.2216 159.828 16.2803 160.013 15.1136C160.199 13.947 160.106 12.9991 159.735 12.2699C159.364 11.5275 158.747 10.9839 157.886 10.6392C157.024 10.2812 155.957 10.1023 154.684 10.1023H150.786L145.457 42H134.4ZM161.366 23.3068L168.445 42H156.434L149.593 23.3068H161.366ZM176.489 10.1818L178.001 1.27273H213.398L211.887 10.1818H199.637L194.387 42H183.489L188.739 10.1818H176.489ZM24.4233 110L31.1847 69.2727H59.821L58.3097 78.1818H40.7301L39.6165 85.1818H55.446L53.9347 94.0909H38.1051L35.4801 110H24.4233ZM62.62 110H50.6882L70.8928 69.2727H86.0064L92.6882 110H80.7564L76.7791 80.4886H76.4609L62.62 110ZM63.0973 93.9318H85.5291L84.0973 102.205H61.6655L63.0973 93.9318ZM96.6108 110L103.372 69.2727H120.952C123.974 69.2727 126.527 69.8229 128.608 70.9233C130.689 72.0237 132.188 73.608 133.102 75.6761C134.017 77.7443 134.236 80.2235 133.759 83.1136C133.281 86.0303 132.227 88.4896 130.597 90.4915C128.979 92.4801 126.918 93.9915 124.412 95.0256C121.92 96.0464 119.122 96.5568 116.02 96.5568H105.52L106.952 87.9659H115.224C116.524 87.9659 117.664 87.8068 118.645 87.4886C119.626 87.1572 120.421 86.6402 121.031 85.9375C121.641 85.2216 122.039 84.2803 122.224 83.1136C122.41 81.947 122.317 80.9991 121.946 80.2699C121.575 79.5275 120.958 78.9839 120.097 78.6392C119.235 78.2812 118.168 78.1023 116.895 78.1023H112.997L107.668 110H96.6108ZM123.577 91.3068L130.656 110H118.645L111.804 91.3068H123.577ZM141.325 69.2727H155.087L160.734 92.3409H161.212L174.496 69.2727H188.257L181.496 110H170.678L174.575 86.4545H174.257L161.371 109.682H154.848L149.678 86.2955H149.359L145.382 110H134.564L141.325 69.2727Z" fill="#60A608"/>
<path d="M0.28125 53.1364H210.694V56.9545H0.28125V53.1364ZM24.3438 121.136H186.666V124.955H24.3438V121.136Z" fill="#60A608"/>
</g>
<defs>
<filter id="filter0_i_2_3" x="0.28125" y="0.715912" width="213.117" height="128.239" filterUnits="userSpaceOnUse" color-interpolation-filters="sRGB">
<feFlood flood-opacity="0" result="BackgroundImageFix"/>
<feBlend mode="normal" in="SourceGraphic" in2="BackgroundImageFix" result="shape"/>
<feColorMatrix in="SourceAlpha" type="matrix" values="0 0 0 0 0 0 0 0 0 0 0 0 0 0 0 0 0 0 127 0" result="hardAlpha"/>
<feOffset dy="4"/>
<feGaussianBlur stdDeviation="2"/>
<feComposite in2="hardAlpha" operator="arithmetic" k2="-1" k3="1"/>
<feColorMatrix type="matrix" values="0 0 0 0 0 0 0 0 0 0 0 0 0 0 0 0 0 0 0.25 0"/>
<feBlend mode="normal" in2="shape" result="effect1_innerShadow_2_3"/>
</filter>
</defs>
</svg>
